<svg width="18" height="18" viewBox="0 0 18 18" fill="none" xmlns="http://www.w3.org/2000/svg">
<path d="M16.3039 1.56216C15.8723 1.06691 15.3598 0.67404 14.7957 0.406001C14.2316 0.137961 13.6269 0 13.0163 0C12.4057 0 11.8011 0.137961 11.237 0.406001C10.6729 0.67404 10.1604 1.06691 9.72871 1.56216L8.83286 2.58949L7.937 1.56216C7.06507 0.562256 5.88248 0.000518283 4.64939 0.000518294C3.41629 0.000518304 2.2337 0.562256 1.36177 1.56216C0.489845 2.56206 9.18727e-09 3.91821 0 5.33228C-9.18727e-09 6.74636 0.489845 8.10251 1.36177 9.10241L2.25763 10.1297L8.83286 17.67L15.4081 10.1297L16.3039 9.10241C16.7358 8.60739 17.0784 8.01965 17.3121 7.37276C17.5459 6.72587 17.6662 6.03251 17.6662 5.33228C17.6662 4.63206 17.5459 3.9387 17.3121 3.29181C17.0784 2.64492 16.7358 2.05717 16.3039 1.56216Z" fill="#DF0C0C"/>
</svg>
