<svg width="24" height="24" viewBox="0 0 24 24" fill="none" xmlns="http://www.w3.org/2000/svg">
<path d="M22.5455 17.1634V20.4134C22.5467 20.7151 22.4849 21.0138 22.364 21.2902C22.2431 21.5667 22.0659 21.8148 21.8435 22.0188C21.6212 22.2228 21.3587 22.378 21.0729 22.4747C20.7871 22.5714 20.4843 22.6073 20.1838 22.5801C16.8502 22.2179 13.648 21.0788 10.8346 19.2543C8.21711 17.591 5.99791 15.3718 4.33463 12.7543C2.50377 9.92808 1.36439 6.71035 1.00879 3.36177C0.981721 3.06219 1.01732 2.76026 1.11334 2.4752C1.20935 2.19013 1.36366 1.92819 1.56646 1.70603C1.76925 1.48387 2.01608 1.30637 2.29123 1.18484C2.56638 1.0633 2.86383 1.00039 3.16463 1.00011H6.41463C6.94037 0.994931 7.45007 1.18111 7.8487 1.52393C8.24734 1.86676 8.50771 2.34284 8.58129 2.86344C8.71847 3.90351 8.97286 4.92473 9.33963 5.90761C9.48538 6.29536 9.51693 6.71676 9.43052 7.12189C9.34412 7.52702 9.14339 7.89889 8.85213 8.19344L7.47629 9.56927C9.01848 12.2814 11.2641 14.5271 13.9763 16.0693L15.3521 14.6934C15.6467 14.4022 16.0185 14.2014 16.4237 14.115C16.8288 14.0286 17.2502 14.0602 17.638 14.2059C18.6208 14.5727 19.6421 14.8271 20.6821 14.9643C21.2084 15.0385 21.689 15.3036 22.0325 15.7091C22.3761 16.1145 22.5586 16.6321 22.5455 17.1634Z" stroke="#138D77" stroke-width="2" stroke-linecap="round" stroke-linejoin="round"/>
</svg>
