<svg width="11" height="10" viewBox="0 0 11 10" fill="none" xmlns="http://www.w3.org/2000/svg">
<path d="M3.99965 3.17384L5.35373 0.491099C5.37974 0.43713 5.42037 0.391547 5.47101 0.359541C5.52166 0.327534 5.58027 0.310389 5.64017 0.310059C5.75363 0.310059 5.86709 0.370199 5.92847 0.491099L7.28255 3.17384L10.3193 3.60536C10.395 3.61726 10.4643 3.6549 10.5154 3.71194C10.5666 3.76898 10.5965 3.84192 10.6002 3.91846C10.6045 3.96941 10.5973 4.02069 10.579 4.06846C10.5608 4.11623 10.532 4.15927 10.4948 4.19436L8.31051 6.27508L8.82511 9.20768C8.87347 9.48234 8.60191 9.69748 8.36259 9.57472L5.64017 8.176L2.91899 9.57472C2.89053 9.5895 2.86002 9.59994 2.82847 9.60572C2.61643 9.64292 2.41431 9.44824 2.45647 9.20768L2.97107 6.27508L0.787433 4.19436C0.753485 4.16224 0.726501 4.12349 0.708157 4.08051C0.689812 4.03752 0.680498 3.99123 0.680793 3.9445C0.680825 3.87843 0.699059 3.81365 0.733493 3.75726C0.75792 3.71638 0.791214 3.68151 0.830918 3.65522C0.870623 3.62893 0.915723 3.61189 0.962893 3.60536L3.99965 3.17384V3.17384ZM5.64017 7.4568C5.69022 7.45659 5.73957 7.4685 5.78401 7.49152L8.06933 8.6658L7.63905 6.21246C7.62889 6.15604 7.63274 6.09798 7.65025 6.04339C7.66776 5.9888 7.69841 5.93934 7.73949 5.89936L9.54183 4.18196L7.02959 3.82484C6.97757 3.81698 6.92823 3.79663 6.88579 3.76554C6.84336 3.73444 6.80909 3.69352 6.78593 3.64628L5.64079 1.37832L5.64017 1.38018V7.45618V7.4568Z" fill="#FFB101"/>
</svg>
